<svg id="visual" viewBox="0 0 900 600" width="900" height="600" xmlns="http://www.w3.org/2000/svg" xmlns:xlink="http://www.w3.org/1999/xlink" version="1.1"><path d="M0 458L21.5 449.3C43 440.7 86 423.3 128.8 428.8C171.7 434.3 214.3 462.7 257.2 464C300 465.3 343 439.7 385.8 423.8C428.7 408 471.3 402 514.2 409.3C557 416.7 600 437.3 642.8 451.7C685.7 466 728.3 474 771.2 467C814 460 857 438 878.5 427L900 416L900 601L878.5 601C857 601 814 601 771.2 601C728.3 601 685.7 601 642.8 601C600 601 557 601 514.2 601C471.3 601 428.7 601 385.8 601C343 601 300 601 257.2 601C214.3 601 171.7 601 128.8 601C86 601 43 601 21.5 601L0 601Z" fill="#ffc708" stroke-linecap="round" stroke-linejoin="miter"></path></svg>